<svg width="38" height="42" fill="none" xmlns="http://www.w3.org/2000/svg"><path d="M37.836 32.75l-1.19-10.934a2.718 2.718 0 00-2.707-2.428h-.867v-1.99a4.773 4.773 0 00-4.768-4.768 4.774 4.774 0 00-4.768 4.768v1.99h-.867a2.718 2.718 0 00-2.707 2.428l-1.19 10.935a2.723 2.723 0 002.706 3.016H35.13a2.723 2.723 0 002.707-3.016zm-2.706 1.656H21.478a1.36 1.36 0 01-1.353-1.508l1.19-10.935a1.36 1.36 0 011.354-1.214h.867v1.718a.68.68 0 001.36 0v-5.069a3.41 3.41 0 013.408-3.407 3.41 3.41 0 013.407 3.407v1.99h-4.307a.68.68 0 000 1.361h4.307v1.718a.68.68 0 001.36 0v-1.718h.868c.696 0 1.278.522 1.353 1.214l1.19 10.935a1.36 1.36 0 01-1.352 1.508zm-4.444 3.913a.68.68 0 00-.68.68c0 .751-.611 1.362-1.362 1.362H2.955c-.75 0-1.36-.61-1.36-1.361V3.614c0-.75.61-1.361 1.36-1.361h19.14v5.189c0 1.5 1.22 2.722 2.721 2.722h5.87a.681.681 0 00.48-1.162C22.649.482 23.2.962 22.909.905c-.094-.019.99-.013-19.953-.013A2.725 2.725 0 00.233 3.614V39c0 1.5 1.221 2.722 2.722 2.722h25.69A2.725 2.725 0 0031.365 39a.68.68 0 00-.68-.68zm-5.87-29.516c-.75 0-1.36-.611-1.36-1.361V3.215l5.587 5.588h-4.227zm-13.77 2.127a2.04 2.04 0 00-2.041-2.046H7.63a2.044 2.044 0 00-2.041 2.041v1.369c0 1.125.916 2.041 2.041 2.041h1.37c1.125 0 2.04-.914 2.042-2.037l.003-1.368zm-1.364 1.365c0 .375-.306.68-.68.68h-1.37a.681.681 0 01-.681-.681v-1.369c0-.375.305-.68.68-.68h1.374a.68.68 0 01.68.682l-.003 1.368zm1.354 8.842a2.044 2.044 0 00-2.041-2.042H7.634a2.044 2.044 0 00-2.042 2.042v1.36c0 1.126.916 2.042 2.042 2.042h1.36a2.044 2.044 0 002.042-2.041v-1.361zm-1.36 1.36c0 .376-.306.681-.681.681H7.634a.681.681 0 01-.68-.68v-1.361c0-.376.305-.68.68-.68h1.36c.376 0 .681.304.681.68v1.36zm-.681 6.806H7.634a2.044 2.044 0 00-2.042 2.041v1.361c0 1.126.916 2.042 2.042 2.042h1.36a2.044 2.044 0 002.042-2.042v-1.36a2.044 2.044 0 00-2.041-2.042zm.68 3.402c0 .375-.305.68-.68.68H7.634a.681.681 0 01-.68-.68v-1.36c0-.376.305-.681.68-.681h1.36c.376 0 .681.305.681.68v1.361zm9.368-20.415h-4.679a.68.68 0 010-1.36h4.679a.68.68 0 010 1.36zm-1.957 10.208h-2.722a.68.68 0 010-1.361h2.722a.68.68 0 010 1.36zm-1.02 8.846a.68.68 0 010 1.361h-1.702a.68.68 0 010-1.36h1.701z" fill="#fff"/></svg>