<svg width="42" height="38" fill="none" xmlns="http://www.w3.org/2000/svg"><path d="M38.628.855H3.242A2.725 2.725 0 00.52 3.577v24.498a2.725 2.725 0 002.722 2.722h14.63v2.637a.68.68 0 001.361 0v-2.467h3.403v2.467a.68.68 0 001.361 0v-2.637h14.631c1.501 0 2.722-1.22 2.722-2.722V3.577c0-1.501-1.221-2.722-2.722-2.722zm1.361 27.22c0 .75-.61 1.361-1.36 1.361H3.241c-.75 0-1.361-.61-1.361-1.36v-24.5c0-.75.61-1.36 1.36-1.36h35.387c.75 0 1.361.61 1.361 1.36v24.5zm-8.877 9.22a.68.68 0 01-.852.447c-5.72-1.78-12.967-1.768-18.65 0a.68.68 0 01-.404-1.3c5.947-1.85 13.477-1.86 19.458 0a.68.68 0 01.448.852zM28.03 13.551a2.161 2.161 0 00-2.152-1.93h-.843v-1.576A4.139 4.139 0 0020.9 5.912a4.139 4.139 0 00-4.134 4.134v1.576h-.844c-1.107 0-2.031.83-2.151 1.93l-1.059 9.72a2.165 2.165 0 002.152 2.4h12.072c1.287 0 2.29-1.12 2.151-2.4l-1.058-9.72zM26.937 24.31H14.865a.802.802 0 01-.799-.89l1.059-9.721a.802.802 0 01.798-.716h.844v1.345a.68.68 0 101.36 0v-4.282a2.776 2.776 0 012.774-2.773 2.776 2.776 0 012.773 2.773v1.575H20.14a.68.68 0 100 1.361h3.534v1.346a.68.68 0 001.36 0v-1.345h.844c.411 0 .754.307.799.716l1.058 9.72a.802.802 0 01-.798.891z" fill="#00AC4E"/></svg>